<?xml version="1.0" encoding="utf-8"?>
<svg viewBox="0 0 479.6 109.6" style="enable-background:new 0 0 479.6 109.6;" xmlns="http://www.w3.org/2000/svg">
  <defs>
    <style type="text/css">
	.st0{fill:#1DC1F8;}
	.st1{fill:#FFB600;}
</style>
  </defs>
  <g style="" transform="matrix(1.679034, 0, 0, 1.494887, -354.171417, -27.859259)">
    <text style="fill: rgb(29, 193, 248); font-family: Arial, sans-serif; font-size: 9.5px; font-weight: 700; white-space: pre;" transform="matrix(6.59008, 0, 0, 8.544051, -1236.279785, -384.453033)" x="221.156" y="54.242">Hotelzee</text>
  </g>
  <g>
    <path class="st1" d="M391.1,99.4c0,0.2-0.1,0.3-0.3,0.5l-3.8,3.7l0.9,5.2c0,0,0,0.1,0,0.2s0,0.3-0.1,0.4s-0.2,0.2-0.3,0.2 c-0.1,0-0.3,0-0.4-0.1l-4.7-2.5l-4.7,2.5c-0.2,0.1-0.3,0.1-0.4,0.1s-0.3-0.1-0.3-0.2c-0.1-0.1-0.1-0.2-0.1-0.4c0,0,0-0.1,0-0.2 l0.9-5.2l-3.8-3.7c-0.2-0.2-0.3-0.4-0.3-0.5c0-0.3,0.2-0.4,0.6-0.5l5.3-0.8l2.4-4.8c0.1-0.3,0.3-0.4,0.5-0.4s0.4,0.1,0.5,0.4 l2.4,4.8l5.3,0.8C390.9,99,391.1,99.1,391.1,99.4z"/>
    <path class="st1" d="M413.2,99.4c0,0.2-0.1,0.3-0.3,0.5l-3.8,3.7l0.9,5.2c0,0,0,0.1,0,0.2s0,0.3-0.1,0.4s-0.2,0.2-0.3,0.2 c-0.1,0-0.3,0-0.4-0.1l-4.7-2.5l-4.7,2.5c-0.2,0.1-0.3,0.1-0.4,0.1s-0.3-0.1-0.3-0.2c-0.1-0.1-0.1-0.2-0.1-0.4c0,0,0-0.1,0-0.2 l0.9-5.2l-3.8-3.7c-0.2-0.2-0.3-0.4-0.3-0.5c0-0.3,0.2-0.4,0.6-0.5l5.3-0.8l2.4-4.8c0.1-0.3,0.3-0.4,0.5-0.4s0.4,0.1,0.5,0.4 l2.4,4.8l5.3,0.8C413,99,413.2,99.1,413.2,99.4z"/>
    <path class="st1" d="M435.4,99.4c0,0.2-0.1,0.3-0.3,0.5l-3.8,3.7l0.9,5.2c0,0,0,0.1,0,0.2s0,0.3-0.1,0.4s-0.2,0.2-0.3,0.2 c-0.1,0-0.3,0-0.4-0.1l-4.7-2.5l-4.7,2.5c-0.2,0.1-0.3,0.1-0.4,0.1s-0.3-0.1-0.3-0.2c-0.1-0.1-0.1-0.2-0.1-0.4c0,0,0-0.1,0-0.2 l0.9-5.2l-3.8-3.7c-0.2-0.2-0.3-0.4-0.3-0.5c0-0.3,0.2-0.4,0.6-0.5l5.3-0.8l2.4-4.8c0.1-0.3,0.3-0.4,0.5-0.4s0.4,0.1,0.5,0.4 l2.4,4.8l5.3,0.8C435.2,99,435.4,99.1,435.4,99.4z"/>
    <path class="st1" d="M457.5,99.4c0,0.2-0.1,0.3-0.3,0.5l-3.8,3.7l0.9,5.2c0,0,0,0.1,0,0.2s0,0.3-0.1,0.4s-0.2,0.2-0.3,0.2 c-0.1,0-0.3,0-0.4-0.1l-4.7-2.5l-4.7,2.5c-0.2,0.1-0.3,0.1-0.4,0.1s-0.3-0.1-0.3-0.2c-0.1-0.1-0.1-0.2-0.1-0.4c0,0,0-0.1,0-0.2 l0.9-5.2l-3.8-3.7c-0.2-0.2-0.3-0.4-0.3-0.5c0-0.3,0.2-0.4,0.6-0.5l5.3-0.8l2.4-4.8c0.1-0.3,0.3-0.4,0.5-0.4s0.4,0.1,0.5,0.4 l2.4,4.8l5.3,0.8C457.3,99,457.5,99.1,457.5,99.4z"/>
    <path class="st1" d="M479.6,99.4c0,0.2-0.1,0.3-0.3,0.5l-3.8,3.7l0.9,5.2c0,0,0,0.1,0,0.2s0,0.3-0.1,0.4s-0.2,0.2-0.3,0.2 c-0.1,0-0.3,0-0.4-0.1l-4.7-2.5l-4.7,2.5c-0.2,0.1-0.3,0.1-0.4,0.1s-0.3-0.1-0.3-0.2c-0.1-0.1-0.1-0.2-0.1-0.4c0,0,0-0.1,0-0.2 l0.9-5.2l-3.8-3.7c-0.2-0.2-0.3-0.4-0.3-0.5c0-0.3,0.2-0.4,0.6-0.5l5.3-0.8l2.4-4.8c0.1-0.3,0.3-0.4,0.5-0.4s0.4,0.1,0.5,0.4 l2.4,4.8l5.3,0.8C479.4,99,479.6,99.1,479.6,99.4z"/>
  </g>
</svg>